<?xml version="1.0" encoding="UTF-8" standalone="no"?>
<svg
   xmlns:dc="http://purl.org/dc/elements/1.1/"
   xmlns:cc="http://creativecommons.org/ns#"
   xmlns:rdf="http://www.w3.org/1999/02/22-rdf-syntax-ns#"
   xmlns:svg="http://www.w3.org/2000/svg"
   xmlns="http://www.w3.org/2000/svg"
   xmlns:sodipodi="http://sodipodi.sourceforge.net/DTD/sodipodi-0.dtd"
   xmlns:inkscape="http://www.inkscape.org/namespaces/inkscape"
   width="32"
   height="48"
   viewBox="0 0 32 48"
   fill="none"
   version="1.1"
   id="svg22"
   sodipodi:docname="VectorB.svg"
   inkscape:version="1.0.2 (e86c8708, 2021-01-15)">
  <metadata
     id="metadata28">
    <rdf:RDF>
      <cc:Work
         rdf:about="">
        <dc:format>image/svg+xml</dc:format>
        <dc:type
           rdf:resource="http://purl.org/dc/dcmitype/StillImage" />
        <dc:title></dc:title>
      </cc:Work>
    </rdf:RDF>
  </metadata>
  <defs
     id="defs26" />
  <sodipodi:namedview
     pagecolor="#ffffff"
     bordercolor="#666666"
     borderopacity="1"
     objecttolerance="10"
     gridtolerance="10"
     guidetolerance="10"
     inkscape:pageopacity="0"
     inkscape:pageshadow="2"
     inkscape:window-width="758"
     inkscape:window-height="480"
     id="namedview24"
     showgrid="false"
     inkscape:zoom="5.1669267"
     inkscape:cx="16"
     inkscape:cy="24"
     inkscape:window-x="0"
     inkscape:window-y="23"
     inkscape:window-maximized="0"
     inkscape:current-layer="svg22" />
  <path
     fill-rule="evenodd"
     clip-rule="evenodd"
     d="m 23.3958,23.6529 c -0.0434,0.2782 -0.1492,0.543 -0.3095,0.7746 -0.1603,0.2315 -0.3709,0.4237 -0.616,0.5623 -0.4937,0.3188 -0.9256,0.4782 -1.3626,0.6376 -0.9307,0.3214 -1.9103,0.6428 -2.9464,1.0156 -1.0926,0.3727 -2.0722,0.7455 -2.9463,1.0155 -1.0901,0.3728 -2.1262,0.6941 -3.1109,1.0669 -0.7408,0.3171 -1.4367,0.7302 -2.0696,1.229 -0.5886599,0.5333 -1.1023799,1.1439 -1.5271599,1.8151 -0.4370701,0.7455 -0.7121602,1.7071 -0.7121602,2.828 0,2.2445 0.54504,3.9516 1.63771,5.0186 1.0901101,1.1235 3.1109101,1.6557 6.1060101,1.6557 3.0544,0 5.1266,-0.5862 6.2218,-1.7611 1.0875,-1.175 1.6325,-2.8281 1.6325,-4.962 V 23.6529 Z M 15.5415,0 c 5.3476,0 9.2735,1.01553 11.7802,3.09802 2.5093,2.03106 3.7639,4.64317 3.7639,7.73858 v 26.3782 c 0,1.0669 -0.216,2.2419 -0.5965,3.5222 -0.3856,1.2855 -1.1466,2.4579 -2.3473,3.5222 -1.1441,1.0721 -2.7252,1.9797 -4.7434,2.6738 C 21.3802,47.6272 18.7629,48 15.5441,48 12.3304,48 9.70798,47.6272 7.69234,46.933 5.6767,46.2389 4.09298,45.3313 2.9489,44.2592 1.8846,43.3001 1.07834,42.089 0.60417801,40.737 0.218532,39.4592 0,38.2843 0,37.2174 V 33.001 c 0,-2.2445 0.59903599,-4.327 1.79968,-6.1447 1.20064,-1.8665 2.8897699,-3.1468 5.0725199,-3.949 1.0900902,-0.3728 2.3447302,-0.7455 3.7613001,-1.2263 1.4192,-0.4834 2.7253,-0.9641 4.0364,-1.3883 1.3112,-0.4294 2.4553,-0.8587 3.4349,-1.2341 0.5911,-0.2365 1.1915,-0.4492 1.7996,-0.6376 l 0.9822,-0.4808 c 0.3856,-0.2134 0.7635,-0.5347 1.1466,-0.9615 0.3805,-0.4242 0.707,-0.905 0.9821,-1.4398 0.2907,-0.579 0.4404,-1.2186 0.4371,-1.8665 V 11.9627 C 23.4564,11.3361 23.3249,10.716 23.0667,10.145 22.8508,9.5023 22.4137,8.91612 21.8147,8.38393 21.2156,7.84917 20.3955,7.42239 19.416,7.09845 18.4338,6.78222 17.1278,6.62025 15.6521,6.62025 c -3.0544,0 -5.0726,0.59132 -6.1626499,1.8151 -0.9255501,1.06953 -1.4706,2.40385 -1.5785802,3.89755 0,0.3214 -0.27252,0.5348 -0.6015999,0.5348 l -6.65110199,0.108 C 0.500177,12.9764 0.34830899,12.9146 0.235632,12.8039 0.122956,12.6931 0.0585941,12.5423 0.0565613,12.3844 v -1.5426 c 0,-1.4989 0.2750937,-2.88722 0.87412969,-4.22155 C 1.5323,5.28334 2.46042,4.16497 3.7124798,3.20086 4.9671099,2.24189 6.6048199,1.44231 8.5664699,0.907552 10.4767,0.26481 12.8214,0 15.5466,0 Z"
     fill="#0a3871"
     id="path20"
     style="stroke-width:1;fill:#e5e5e5;fill-opacity:1" />
</svg>
